ISO-10303-21;
HEADER;
FILE_DESCRIPTION(('FreeCAD Model'),'2;1');
FILE_NAME('Open CASCADE Shape Model','2026-02-13T18:24:35',(''),(''),
  'Open CASCADE STEP processor 7.8','FreeCAD','Unknown');
FILE_SCHEMA(('AUTOMOTIVE_DESIGN { 1 0 10303 214 1 1 1 1 }'));
ENDSEC;
DATA;
#1 = APPLICATION_PROTOCOL_DEFINITION('international standard',
  'automotive_design',2000,#2);
#2 = APPLICATION_CONTEXT(
  'core data for automotive mechanical design processes');
#3 = SHAPE_DEFINITION_REPRESENTATION(#4,#10);
#4 = PRODUCT_DEFINITION_SHAPE('','',#5);
#5 = PRODUCT_DEFINITION('design','',#6,#9);
#6 = PRODUCT_DEFINITION_FORMATION('','',#7);
#7 = PRODUCT('Bracket','Bracket','',(#8));
#8 = PRODUCT_CONTEXT('',#2,'mechanical');
#9 = PRODUCT_DEFINITION_CONTEXT('part definition',#2,'design');
#10 = ADVANCED_BREP_SHAPE_REPRESENTATION('',(#11,#15),#318);
#11 = AXIS2_PLACEMENT_3D('',#12,#13,#14);
#12 = CARTESIAN_POINT('',(0.,0.,0.));
#13 = DIRECTION('',(0.,0.,1.));
#14 = DIRECTION('',(1.,0.,-0.));
#15 = MANIFOLD_SOLID_BREP('',#16);
#16 = CLOSED_SHELL('',(#17,#49,#74,#117,#148,#179,#212,#254,#271,#290,
    #302));
#17 = ADVANCED_FACE('',(#18),#44,.F.);
#18 = FACE_BOUND('',#19,.T.);
#19 = EDGE_LOOP('',(#20,#29,#36,#43));
#20 = ORIENTED_EDGE('',*,*,#21,.F.);
#21 = EDGE_CURVE('',#22,#22,#24,.T.);
#22 = VERTEX_POINT('',#23);
#23 = CARTESIAN_POINT('',(3.6,0.,11.248924226216));
#24 = CIRCLE('',#25,1.5);
#25 = AXIS2_PLACEMENT_3D('',#26,#27,#28);
#26 = CARTESIAN_POINT('',(2.1,0.,11.248924226216));
#27 = DIRECTION('',(0.,0.,-1.));
#28 = DIRECTION('',(0.,1.,0.));
#29 = ORIENTED_EDGE('',*,*,#30,.T.);
#30 = EDGE_CURVE('',#22,#31,#33,.T.);
#31 = VERTEX_POINT('',#32);
#32 = CARTESIAN_POINT('',(3.6,0.,9.8));
#33 = B_SPLINE_CURVE_WITH_KNOTS('',1,(#34,#35),.UNSPECIFIED.,.F.,.F.,(2,
    2),(-13.8,-9.8),.PIECEWISE_BEZIER_KNOTS.);
#34 = CARTESIAN_POINT('',(3.6,0.,13.8));
#35 = CARTESIAN_POINT('',(3.6,0.,9.8));
#36 = ORIENTED_EDGE('',*,*,#37,.T.);
#37 = EDGE_CURVE('',#31,#31,#38,.T.);
#38 = CIRCLE('',#39,1.5);
#39 = AXIS2_PLACEMENT_3D('',#40,#41,#42);
#40 = CARTESIAN_POINT('',(2.1,0.,9.8));
#41 = DIRECTION('',(0.,0.,-1.));
#42 = DIRECTION('',(1.,0.,0.));
#43 = ORIENTED_EDGE('',*,*,#30,.F.);
#44 = CYLINDRICAL_SURFACE('',#45,1.5);
#45 = AXIS2_PLACEMENT_3D('',#46,#47,#48);
#46 = CARTESIAN_POINT('',(2.1,0.,0.));
#47 = DIRECTION('',(-0.,-0.,-1.));
#48 = DIRECTION('',(1.,0.,0.));
#49 = ADVANCED_FACE('',(#50),#69,.F.);
#50 = FACE_BOUND('',#51,.T.);
#51 = EDGE_LOOP('',(#52,#60,#67,#68));
#52 = ORIENTED_EDGE('',*,*,#53,.F.);
#53 = EDGE_CURVE('',#54,#22,#56,.T.);
#54 = VERTEX_POINT('',#55);
#55 = CARTESIAN_POINT('',(4.85,0.,12.));
#56 = LINE('',#57,#58);
#57 = CARTESIAN_POINT('',(4.85,0.,12.));
#58 = VECTOR('',#59,1.);
#59 = DIRECTION('',(-0.857167300702,-0.,-0.51503807491));
#60 = ORIENTED_EDGE('',*,*,#61,.T.);
#61 = EDGE_CURVE('',#54,#54,#62,.T.);
#62 = CIRCLE('',#63,2.75);
#63 = AXIS2_PLACEMENT_3D('',#64,#65,#66);
#64 = CARTESIAN_POINT('',(2.1,0.,12.));
#65 = DIRECTION('',(0.,0.,1.));
#66 = DIRECTION('',(1.,0.,-0.));
#67 = ORIENTED_EDGE('',*,*,#53,.T.);
#68 = ORIENTED_EDGE('',*,*,#21,.T.);
#69 = CONICAL_SURFACE('',#70,2.75,1.029744258677);
#70 = AXIS2_PLACEMENT_3D('',#71,#72,#73);
#71 = CARTESIAN_POINT('',(2.1,0.,12.));
#72 = DIRECTION('',(0.,0.,1.));
#73 = DIRECTION('',(1.,0.,0.));
#74 = ADVANCED_FACE('',(#75,#109),#112,.T.);
#75 = FACE_BOUND('',#76,.T.);
#76 = EDGE_LOOP('',(#77,#87,#95,#103));
#77 = ORIENTED_EDGE('',*,*,#78,.F.);
#78 = EDGE_CURVE('',#79,#81,#83,.T.);
#79 = VERTEX_POINT('',#80);
#80 = CARTESIAN_POINT('',(6.65,4.2,9.8));
#81 = VERTEX_POINT('',#82);
#82 = CARTESIAN_POINT('',(-7.,4.2,9.8));
#83 = LINE('',#84,#85);
#84 = CARTESIAN_POINT('',(7.,4.2,9.8));
#85 = VECTOR('',#86,1.);
#86 = DIRECTION('',(-1.,0.,0.));
#87 = ORIENTED_EDGE('',*,*,#88,.F.);
#88 = EDGE_CURVE('',#89,#79,#91,.T.);
#89 = VERTEX_POINT('',#90);
#90 = CARTESIAN_POINT('',(6.65,-4.2,9.8));
#91 = LINE('',#92,#93);
#92 = CARTESIAN_POINT('',(6.65,-2.1,9.8));
#93 = VECTOR('',#94,1.);
#94 = DIRECTION('',(0.,1.,0.));
#95 = ORIENTED_EDGE('',*,*,#96,.F.);
#96 = EDGE_CURVE('',#97,#89,#99,.T.);
#97 = VERTEX_POINT('',#98);
#98 = CARTESIAN_POINT('',(-7.,-4.2,9.8));
#99 = LINE('',#100,#101);
#100 = CARTESIAN_POINT('',(-7.,-4.2,9.8));
#101 = VECTOR('',#102,1.);
#102 = DIRECTION('',(1.,0.,0.));
#103 = ORIENTED_EDGE('',*,*,#104,.F.);
#104 = EDGE_CURVE('',#81,#97,#105,.T.);
#105 = LINE('',#106,#107);
#106 = CARTESIAN_POINT('',(-7.,4.2,9.8));
#107 = VECTOR('',#108,1.);
#108 = DIRECTION('',(0.,-1.,0.));
#109 = FACE_BOUND('',#110,.T.);
#110 = EDGE_LOOP('',(#111));
#111 = ORIENTED_EDGE('',*,*,#37,.F.);
#112 = PLANE('',#113);
#113 = AXIS2_PLACEMENT_3D('',#114,#115,#116);
#114 = CARTESIAN_POINT('',(-0.175,1.6E-16,9.8));
#115 = DIRECTION('',(-0.,-0.,-1.));
#116 = DIRECTION('',(-1.,0.,0.));
#117 = ADVANCED_FACE('',(#118),#143,.T.);
#118 = FACE_BOUND('',#119,.T.);
#119 = EDGE_LOOP('',(#120,#128,#129,#137));
#120 = ORIENTED_EDGE('',*,*,#121,.T.);
#121 = EDGE_CURVE('',#122,#81,#124,.T.);
#122 = VERTEX_POINT('',#123);
#123 = CARTESIAN_POINT('',(-7.,4.2,0.));
#124 = LINE('',#125,#126);
#125 = CARTESIAN_POINT('',(-7.,4.2,0.));
#126 = VECTOR('',#127,1.);
#127 = DIRECTION('',(0.,0.,1.));
#128 = ORIENTED_EDGE('',*,*,#104,.T.);
#129 = ORIENTED_EDGE('',*,*,#130,.F.);
#130 = EDGE_CURVE('',#131,#97,#133,.T.);
#131 = VERTEX_POINT('',#132);
#132 = CARTESIAN_POINT('',(-7.,-4.2,0.));
#133 = LINE('',#134,#135);
#134 = CARTESIAN_POINT('',(-7.,-4.2,0.));
#135 = VECTOR('',#136,1.);
#136 = DIRECTION('',(0.,0.,1.));
#137 = ORIENTED_EDGE('',*,*,#138,.F.);
#138 = EDGE_CURVE('',#122,#131,#139,.T.);
#139 = LINE('',#140,#141);
#140 = CARTESIAN_POINT('',(-7.,4.2,0.));
#141 = VECTOR('',#142,1.);
#142 = DIRECTION('',(0.,-1.,0.));
#143 = PLANE('',#144);
#144 = AXIS2_PLACEMENT_3D('',#145,#146,#147);
#145 = CARTESIAN_POINT('',(-7.,4.2,0.));
#146 = DIRECTION('',(1.,0.,0.));
#147 = DIRECTION('',(0.,-1.,0.));
#148 = ADVANCED_FACE('',(#149),#174,.T.);
#149 = FACE_BOUND('',#150,.T.);
#150 = EDGE_LOOP('',(#151,#159,#160,#168));
#151 = ORIENTED_EDGE('',*,*,#152,.F.);
#152 = EDGE_CURVE('',#122,#153,#155,.T.);
#153 = VERTEX_POINT('',#154);
#154 = CARTESIAN_POINT('',(-18.75,4.2,0.));
#155 = LINE('',#156,#157);
#156 = CARTESIAN_POINT('',(6.65,4.2,0.));
#157 = VECTOR('',#158,1.);
#158 = DIRECTION('',(-1.,0.,0.));
#159 = ORIENTED_EDGE('',*,*,#138,.T.);
#160 = ORIENTED_EDGE('',*,*,#161,.F.);
#161 = EDGE_CURVE('',#162,#131,#164,.T.);
#162 = VERTEX_POINT('',#163);
#163 = CARTESIAN_POINT('',(-18.75,-4.2,0.));
#164 = LINE('',#165,#166);
#165 = CARTESIAN_POINT('',(-8.75,-4.2,0.));
#166 = VECTOR('',#167,1.);
#167 = DIRECTION('',(1.,0.,0.));
#168 = ORIENTED_EDGE('',*,*,#169,.F.);
#169 = EDGE_CURVE('',#153,#162,#170,.T.);
#170 = LINE('',#171,#172);
#171 = CARTESIAN_POINT('',(-18.75,4.2,0.));
#172 = VECTOR('',#173,1.);
#173 = DIRECTION('',(0.,-1.,0.));
#174 = PLANE('',#175);
#175 = AXIS2_PLACEMENT_3D('',#176,#177,#178);
#176 = CARTESIAN_POINT('',(-12.875,8.8E-16,0.));
#177 = DIRECTION('',(-0.,-0.,-1.));
#178 = DIRECTION('',(-1.,0.,0.));
#179 = ADVANCED_FACE('',(#180),#207,.T.);
#180 = FACE_BOUND('',#181,.T.);
#181 = EDGE_LOOP('',(#182,#183,#184,#185,#193,#201));
#182 = ORIENTED_EDGE('',*,*,#78,.T.);
#183 = ORIENTED_EDGE('',*,*,#121,.F.);
#184 = ORIENTED_EDGE('',*,*,#152,.T.);
#185 = ORIENTED_EDGE('',*,*,#186,.T.);
#186 = EDGE_CURVE('',#153,#187,#189,.T.);
#187 = VERTEX_POINT('',#188);
#188 = CARTESIAN_POINT('',(-18.75,4.2,15.8));
#189 = LINE('',#190,#191);
#190 = CARTESIAN_POINT('',(-18.75,4.2,0.));
#191 = VECTOR('',#192,1.);
#192 = DIRECTION('',(0.,0.,1.));
#193 = ORIENTED_EDGE('',*,*,#194,.F.);
#194 = EDGE_CURVE('',#195,#187,#197,.T.);
#195 = VERTEX_POINT('',#196);
#196 = CARTESIAN_POINT('',(6.65,4.2,15.8));
#197 = LINE('',#198,#199);
#198 = CARTESIAN_POINT('',(-8.75,4.2,15.8));
#199 = VECTOR('',#200,1.);
#200 = DIRECTION('',(-1.,-0.,-0.));
#201 = ORIENTED_EDGE('',*,*,#202,.F.);
#202 = EDGE_CURVE('',#79,#195,#203,.T.);
#203 = LINE('',#204,#205);
#204 = CARTESIAN_POINT('',(6.65,4.2,13.8));
#205 = VECTOR('',#206,1.);
#206 = DIRECTION('',(0.,0.,1.));
#207 = PLANE('',#208);
#208 = AXIS2_PLACEMENT_3D('',#209,#210,#211);
#209 = CARTESIAN_POINT('',(-7.673422330097,4.2,9.523422330097));
#210 = DIRECTION('',(0.,1.,0.));
#211 = DIRECTION('',(0.,-0.,1.));
#212 = ADVANCED_FACE('',(#213,#238),#249,.T.);
#213 = FACE_BOUND('',#214,.T.);
#214 = EDGE_LOOP('',(#215,#216,#224,#232));
#215 = ORIENTED_EDGE('',*,*,#194,.T.);
#216 = ORIENTED_EDGE('',*,*,#217,.T.);
#217 = EDGE_CURVE('',#187,#218,#220,.T.);
#218 = VERTEX_POINT('',#219);
#219 = CARTESIAN_POINT('',(-18.75,-4.2,15.8));
#220 = LINE('',#221,#222);
#221 = CARTESIAN_POINT('',(-18.75,4.2,15.8));
#222 = VECTOR('',#223,1.);
#223 = DIRECTION('',(0.,-1.,0.));
#224 = ORIENTED_EDGE('',*,*,#225,.F.);
#225 = EDGE_CURVE('',#226,#218,#228,.T.);
#226 = VERTEX_POINT('',#227);
#227 = CARTESIAN_POINT('',(6.65,-4.2,15.8));
#228 = LINE('',#229,#230);
#229 = CARTESIAN_POINT('',(-8.75,-4.2,15.8));
#230 = VECTOR('',#231,1.);
#231 = DIRECTION('',(-1.,-0.,-0.));
#232 = ORIENTED_EDGE('',*,*,#233,.T.);
#233 = EDGE_CURVE('',#226,#195,#234,.T.);
#234 = LINE('',#235,#236);
#235 = CARTESIAN_POINT('',(6.65,-4.2,15.8));
#236 = VECTOR('',#237,1.);
#237 = DIRECTION('',(0.,1.,0.));
#238 = FACE_BOUND('',#239,.T.);
#239 = EDGE_LOOP('',(#240));
#240 = ORIENTED_EDGE('',*,*,#241,.F.);
#241 = EDGE_CURVE('',#242,#242,#244,.T.);
#242 = VERTEX_POINT('',#243);
#243 = CARTESIAN_POINT('',(4.85,0.,15.8));
#244 = CIRCLE('',#245,2.75);
#245 = AXIS2_PLACEMENT_3D('',#246,#247,#248);
#246 = CARTESIAN_POINT('',(2.1,0.,15.8));
#247 = DIRECTION('',(0.,0.,1.));
#248 = DIRECTION('',(1.,0.,-0.));
#249 = PLANE('',#250);
#250 = AXIS2_PLACEMENT_3D('',#251,#252,#253);
#251 = CARTESIAN_POINT('',(-6.05,1.16E-15,15.8));
#252 = DIRECTION('',(0.,0.,1.));
#253 = DIRECTION('',(1.,0.,0.));
#254 = ADVANCED_FACE('',(#255),#266,.T.);
#255 = FACE_BOUND('',#256,.T.);
#256 = EDGE_LOOP('',(#257,#258,#259,#260));
#257 = ORIENTED_EDGE('',*,*,#88,.T.);
#258 = ORIENTED_EDGE('',*,*,#202,.T.);
#259 = ORIENTED_EDGE('',*,*,#233,.F.);
#260 = ORIENTED_EDGE('',*,*,#261,.F.);
#261 = EDGE_CURVE('',#89,#226,#262,.T.);
#262 = LINE('',#263,#264);
#263 = CARTESIAN_POINT('',(6.65,-4.2,13.8));
#264 = VECTOR('',#265,1.);
#265 = DIRECTION('',(0.,0.,1.));
#266 = PLANE('',#267);
#267 = AXIS2_PLACEMENT_3D('',#268,#269,#270);
#268 = CARTESIAN_POINT('',(6.65,8.6E-16,12.8));
#269 = DIRECTION('',(1.,0.,0.));
#270 = DIRECTION('',(0.,0.,1.));
#271 = ADVANCED_FACE('',(#272),#285,.T.);
#272 = FACE_BOUND('',#273,.T.);
#273 = EDGE_LOOP('',(#274,#275,#276,#277,#278,#279));
#274 = ORIENTED_EDGE('',*,*,#161,.T.);
#275 = ORIENTED_EDGE('',*,*,#130,.T.);
#276 = ORIENTED_EDGE('',*,*,#96,.T.);
#277 = ORIENTED_EDGE('',*,*,#261,.T.);
#278 = ORIENTED_EDGE('',*,*,#225,.T.);
#279 = ORIENTED_EDGE('',*,*,#280,.F.);
#280 = EDGE_CURVE('',#162,#218,#281,.T.);
#281 = LINE('',#282,#283);
#282 = CARTESIAN_POINT('',(-18.75,-4.2,13.8));
#283 = VECTOR('',#284,1.);
#284 = DIRECTION('',(0.,0.,1.));
#285 = PLANE('',#286);
#286 = AXIS2_PLACEMENT_3D('',#287,#288,#289);
#287 = CARTESIAN_POINT('',(-7.673422330097,-4.2,9.523422330097));
#288 = DIRECTION('',(-0.,-1.,-0.));
#289 = DIRECTION('',(0.,0.,-1.));
#290 = ADVANCED_FACE('',(#291),#297,.T.);
#291 = FACE_BOUND('',#292,.T.);
#292 = EDGE_LOOP('',(#293,#294,#295,#296));
#293 = ORIENTED_EDGE('',*,*,#186,.F.);
#294 = ORIENTED_EDGE('',*,*,#169,.T.);
#295 = ORIENTED_EDGE('',*,*,#280,.T.);
#296 = ORIENTED_EDGE('',*,*,#217,.F.);
#297 = PLANE('',#298);
#298 = AXIS2_PLACEMENT_3D('',#299,#300,#301);
#299 = CARTESIAN_POINT('',(-18.75,8.1E-16,7.9));
#300 = DIRECTION('',(-1.,-0.,-0.));
#301 = DIRECTION('',(0.,0.,-1.));
#302 = ADVANCED_FACE('',(#303),#313,.F.);
#303 = FACE_BOUND('',#304,.T.);
#304 = EDGE_LOOP('',(#305,#306,#311,#312));
#305 = ORIENTED_EDGE('',*,*,#241,.T.);
#306 = ORIENTED_EDGE('',*,*,#307,.T.);
#307 = EDGE_CURVE('',#242,#54,#308,.T.);
#308 = B_SPLINE_CURVE_WITH_KNOTS('',1,(#309,#310),.UNSPECIFIED.,.F.,.F.,
  (2,2),(-2.,1.8),.PIECEWISE_BEZIER_KNOTS.);
#309 = CARTESIAN_POINT('',(4.85,0.,15.8));
#310 = CARTESIAN_POINT('',(4.85,0.,12.));
#311 = ORIENTED_EDGE('',*,*,#61,.F.);
#312 = ORIENTED_EDGE('',*,*,#307,.F.);
#313 = CYLINDRICAL_SURFACE('',#314,2.75);
#314 = AXIS2_PLACEMENT_3D('',#315,#316,#317);
#315 = CARTESIAN_POINT('',(2.1,0.,13.8));
#316 = DIRECTION('',(-0.,-0.,-1.));
#317 = DIRECTION('',(1.,0.,0.));
#318 = ( GEOMETRIC_REPRESENTATION_CONTEXT(3) 
GLOBAL_UNCERTAINTY_ASSIGNED_CONTEXT((#322)) GLOBAL_UNIT_ASSIGNED_CONTEXT
((#319,#320,#321)) REPRESENTATION_CONTEXT('Context #1',
  '3D Context with UNIT and UNCERTAINTY') );
#319 = ( LENGTH_UNIT() NAMED_UNIT(*) SI_UNIT(.MILLI.,.METRE.) );
#320 = ( NAMED_UNIT(*) PLANE_ANGLE_UNIT() SI_UNIT($,.RADIAN.) );
#321 = ( NAMED_UNIT(*) SI_UNIT($,.STERADIAN.) SOLID_ANGLE_UNIT() );
#322 = UNCERTAINTY_MEASURE_WITH_UNIT(LENGTH_MEASURE(1.E-05),#319,
  'distance_accuracy_value','confusion accuracy');
#323 = PRODUCT_RELATED_PRODUCT_CATEGORY('part',$,(#7));
#324 = MECHANICAL_DESIGN_GEOMETRIC_PRESENTATION_REPRESENTATION('',(#325)
  ,#318);
#325 = STYLED_ITEM('color',(#326),#15);
#326 = PRESENTATION_STYLE_ASSIGNMENT((#327,#333));
#327 = SURFACE_STYLE_USAGE(.BOTH.,#328);
#328 = SURFACE_SIDE_STYLE('',(#329));
#329 = SURFACE_STYLE_FILL_AREA(#330);
#330 = FILL_AREA_STYLE('',(#331));
#331 = FILL_AREA_STYLE_COLOUR('',#332);
#332 = COLOUR_RGB('',0.447058818107,0.474509808674,0.501960817233);
#333 = CURVE_STYLE('',#334,POSITIVE_LENGTH_MEASURE(0.1),#335);
#334 = DRAUGHTING_PRE_DEFINED_CURVE_FONT('continuous');
#335 = COLOUR_RGB('',0.678431390124,0.709803936702,0.741176476869);
ENDSEC;
END-ISO-10303-21;
