ISO-10303-21;
HEADER;
FILE_DESCRIPTION(('FreeCAD Model'),'2;1');
FILE_NAME('Open CASCADE Shape Model','2026-02-13T18:24:10',(''),(''),
  'Open CASCADE STEP processor 7.8','FreeCAD','Unknown');
FILE_SCHEMA(('AUTOMOTIVE_DESIGN { 1 0 10303 214 1 1 1 1 }'));
ENDSEC;
DATA;
#1 = APPLICATION_PROTOCOL_DEFINITION('international standard',
  'automotive_design',2000,#2);
#2 = APPLICATION_CONTEXT(
  'core data for automotive mechanical design processes');
#3 = SHAPE_DEFINITION_REPRESENTATION(#4,#10);
#4 = PRODUCT_DEFINITION_SHAPE('','',#5);
#5 = PRODUCT_DEFINITION('design','',#6,#9);
#6 = PRODUCT_DEFINITION_FORMATION('','',#7);
#7 = PRODUCT('Body','Body','',(#8));
#8 = PRODUCT_CONTEXT('',#2,'mechanical');
#9 = PRODUCT_DEFINITION_CONTEXT('part definition',#2,'design');
#10 = ADVANCED_BREP_SHAPE_REPRESENTATION('',(#11,#15),#743);
#11 = AXIS2_PLACEMENT_3D('',#12,#13,#14);
#12 = CARTESIAN_POINT('',(0.,0.,0.));
#13 = DIRECTION('',(0.,0.,1.));
#14 = DIRECTION('',(1.,0.,-0.));
#15 = MANIFOLD_SOLID_BREP('',#16);
#16 = CLOSED_SHELL('',(#17,#59,#91,#115,#139,#225,#272,#296,#336,#383,
    #407,#447,#469,#497,#509,#531,#559,#571,#595,#619,#644,#668,#693,
    #717));
#17 = ADVANCED_FACE('',(#18),#54,.T.);
#18 = FACE_BOUND('',#19,.F.);
#19 = EDGE_LOOP('',(#20,#31,#39,#48));
#20 = ORIENTED_EDGE('',*,*,#21,.F.);
#21 = EDGE_CURVE('',#22,#24,#26,.T.);
#22 = VERTEX_POINT('',#23);
#23 = CARTESIAN_POINT('',(112.230178833,-9.848277212352,-1.220000014901)
  );
#24 = VERTEX_POINT('',#25);
#25 = CARTESIAN_POINT('',(112.230178833,-195.2439621675,-1.220000014901)
  );
#26 = CIRCLE('',#27,108.3);
#27 = AXIS2_PLACEMENT_3D('',#28,#29,#30);
#28 = CARTESIAN_POINT('',(168.230178833,-102.5461196899,-1.220000014901)
  );
#29 = DIRECTION('',(0.,0.,1.));
#30 = DIRECTION('',(1.,0.,0.));
#31 = ORIENTED_EDGE('',*,*,#32,.F.);
#32 = EDGE_CURVE('',#33,#22,#35,.T.);
#33 = VERTEX_POINT('',#34);
#34 = CARTESIAN_POINT('',(112.230178833,-9.848277212352,88.779999985099)
  );
#35 = LINE('',#36,#37);
#36 = CARTESIAN_POINT('',(112.230178833,-9.848277212352,-1.220000014901)
  );
#37 = VECTOR('',#38,1.);
#38 = DIRECTION('',(-0.,-0.,-1.));
#39 = ORIENTED_EDGE('',*,*,#40,.T.);
#40 = EDGE_CURVE('',#33,#41,#43,.T.);
#41 = VERTEX_POINT('',#42);
#42 = CARTESIAN_POINT('',(112.230178833,-195.2439621675,88.779999985099)
  );
#43 = CIRCLE('',#44,108.3);
#44 = AXIS2_PLACEMENT_3D('',#45,#46,#47);
#45 = CARTESIAN_POINT('',(168.230178833,-102.5461196899,88.779999985099)
  );
#46 = DIRECTION('',(0.,0.,1.));
#47 = DIRECTION('',(1.,0.,0.));
#48 = ORIENTED_EDGE('',*,*,#49,.T.);
#49 = EDGE_CURVE('',#41,#24,#50,.T.);
#50 = LINE('',#51,#52);
#51 = CARTESIAN_POINT('',(112.230178833,-195.2439621675,-1.220000014901)
  );
#52 = VECTOR('',#53,1.);
#53 = DIRECTION('',(-0.,-0.,-1.));
#54 = CYLINDRICAL_SURFACE('',#55,108.3);
#55 = AXIS2_PLACEMENT_3D('',#56,#57,#58);
#56 = CARTESIAN_POINT('',(168.230178833,-102.5461196899,-1.220000014901)
  );
#57 = DIRECTION('',(-0.,-0.,-1.));
#58 = DIRECTION('',(1.,0.,0.));
#59 = ADVANCED_FACE('',(#60),#86,.F.);
#60 = FACE_BOUND('',#61,.F.);
#61 = EDGE_LOOP('',(#62,#70,#71,#79));
#62 = ORIENTED_EDGE('',*,*,#63,.F.);
#63 = EDGE_CURVE('',#22,#64,#66,.T.);
#64 = VERTEX_POINT('',#65);
#65 = CARTESIAN_POINT('',(112.23017883301,-16.69595952701,
    -1.220000014901));
#66 = LINE('',#67,#68);
#67 = CARTESIAN_POINT('',(112.230178833,7.453880310059,-1.220000014901)
  );
#68 = VECTOR('',#69,1.);
#69 = DIRECTION('',(0.,-1.,0.));
#70 = ORIENTED_EDGE('',*,*,#21,.T.);
#71 = ORIENTED_EDGE('',*,*,#72,.F.);
#72 = EDGE_CURVE('',#73,#24,#75,.T.);
#73 = VERTEX_POINT('',#74);
#74 = CARTESIAN_POINT('',(112.23017883301,-188.3962798528,
    -1.220000014901));
#75 = LINE('',#76,#77);
#76 = CARTESIAN_POINT('',(112.230178833,7.453880310059,-1.220000014901)
  );
#77 = VECTOR('',#78,1.);
#78 = DIRECTION('',(0.,-1.,0.));
#79 = ORIENTED_EDGE('',*,*,#80,.F.);
#80 = EDGE_CURVE('',#64,#73,#81,.T.);
#81 = CIRCLE('',#82,102.5);
#82 = AXIS2_PLACEMENT_3D('',#83,#84,#85);
#83 = CARTESIAN_POINT('',(168.230178833,-102.5461196899,-1.220000014901)
  );
#84 = DIRECTION('',(0.,0.,1.));
#85 = DIRECTION('',(1.,0.,0.));
#86 = PLANE('',#87);
#87 = AXIS2_PLACEMENT_3D('',#88,#89,#90);
#88 = CARTESIAN_POINT('',(168.230178833,-102.5461196899,-1.220000014901)
  );
#89 = DIRECTION('',(0.,0.,1.));
#90 = DIRECTION('',(1.,0.,0.));
#91 = ADVANCED_FACE('',(#92),#110,.T.);
#92 = FACE_BOUND('',#93,.T.);
#93 = EDGE_LOOP('',(#94,#95,#103,#109));
#94 = ORIENTED_EDGE('',*,*,#72,.F.);
#95 = ORIENTED_EDGE('',*,*,#96,.F.);
#96 = EDGE_CURVE('',#97,#73,#99,.T.);
#97 = VERTEX_POINT('',#98);
#98 = CARTESIAN_POINT('',(112.23017883301,-188.3962798528,
    88.779999985099));
#99 = LINE('',#100,#101);
#100 = CARTESIAN_POINT('',(112.230178833,-188.3962798528,-1.220000014901
    ));
#101 = VECTOR('',#102,1.);
#102 = DIRECTION('',(-0.,-0.,-1.));
#103 = ORIENTED_EDGE('',*,*,#104,.T.);
#104 = EDGE_CURVE('',#97,#41,#105,.T.);
#105 = LINE('',#106,#107);
#106 = CARTESIAN_POINT('',(112.230178833,7.453880310059,88.779999985099)
  );
#107 = VECTOR('',#108,1.);
#108 = DIRECTION('',(0.,-1.,0.));
#109 = ORIENTED_EDGE('',*,*,#49,.T.);
#110 = PLANE('',#111);
#111 = AXIS2_PLACEMENT_3D('',#112,#113,#114);
#112 = CARTESIAN_POINT('',(112.230178833,7.453880310059,-1.220000014901)
  );
#113 = DIRECTION('',(1.,0.,0.));
#114 = DIRECTION('',(0.,-1.,0.));
#115 = ADVANCED_FACE('',(#116),#134,.T.);
#116 = FACE_BOUND('',#117,.T.);
#117 = EDGE_LOOP('',(#118,#119,#120,#128));
#118 = ORIENTED_EDGE('',*,*,#63,.F.);
#119 = ORIENTED_EDGE('',*,*,#32,.F.);
#120 = ORIENTED_EDGE('',*,*,#121,.T.);
#121 = EDGE_CURVE('',#33,#122,#124,.T.);
#122 = VERTEX_POINT('',#123);
#123 = CARTESIAN_POINT('',(112.23017883301,-16.69595952701,
    88.779999985099));
#124 = LINE('',#125,#126);
#125 = CARTESIAN_POINT('',(112.230178833,7.453880310059,88.779999985099)
  );
#126 = VECTOR('',#127,1.);
#127 = DIRECTION('',(0.,-1.,0.));
#128 = ORIENTED_EDGE('',*,*,#129,.T.);
#129 = EDGE_CURVE('',#122,#64,#130,.T.);
#130 = LINE('',#131,#132);
#131 = CARTESIAN_POINT('',(112.230178833,-16.69595952701,-1.220000014901
    ));
#132 = VECTOR('',#133,1.);
#133 = DIRECTION('',(-0.,-0.,-1.));
#134 = PLANE('',#135);
#135 = AXIS2_PLACEMENT_3D('',#136,#137,#138);
#136 = CARTESIAN_POINT('',(112.230178833,7.453880310059,-1.220000014901)
  );
#137 = DIRECTION('',(1.,0.,0.));
#138 = DIRECTION('',(0.,-1.,0.));
#139 = ADVANCED_FACE('',(#140),#220,.F.);
#140 = FACE_BOUND('',#141,.T.);
#141 = EDGE_LOOP('',(#142,#143,#144,#153,#161,#170,#178,#187,#195,#204,
    #212,#219));
#142 = ORIENTED_EDGE('',*,*,#80,.F.);
#143 = ORIENTED_EDGE('',*,*,#129,.F.);
#144 = ORIENTED_EDGE('',*,*,#145,.F.);
#145 = EDGE_CURVE('',#146,#122,#148,.T.);
#146 = VERTEX_POINT('',#147);
#147 = CARTESIAN_POINT('',(82.748476660771,-45.98527993541,
    88.77999999255));
#148 = CIRCLE('',#149,102.5);
#149 = AXIS2_PLACEMENT_3D('',#150,#151,#152);
#150 = CARTESIAN_POINT('',(168.230178833,-102.5461196899,88.779999985099
    ));
#151 = DIRECTION('',(0.,0.,-1.));
#152 = DIRECTION('',(1.,0.,0.));
#153 = ORIENTED_EDGE('',*,*,#154,.T.);
#154 = EDGE_CURVE('',#146,#155,#157,.T.);
#155 = VERTEX_POINT('',#156);
#156 = CARTESIAN_POINT('',(82.748476660772,-45.98527993541,72.98));
#157 = LINE('',#158,#159);
#158 = CARTESIAN_POINT('',(82.748476660772,-45.98527993541,
    -1.220000014901));
#159 = VECTOR('',#160,1.);
#160 = DIRECTION('',(-0.,-0.,-1.));
#161 = ORIENTED_EDGE('',*,*,#162,.F.);
#162 = EDGE_CURVE('',#163,#155,#165,.T.);
#163 = VERTEX_POINT('',#164);
#164 = CARTESIAN_POINT('',(78.393610872035,-53.19390538304,72.98));
#165 = CIRCLE('',#166,102.5);
#166 = AXIS2_PLACEMENT_3D('',#167,#168,#169);
#167 = CARTESIAN_POINT('',(168.230178833,-102.5461196899,72.98));
#168 = DIRECTION('',(0.,0.,-1.));
#169 = DIRECTION('',(1.,0.,0.));
#170 = ORIENTED_EDGE('',*,*,#171,.F.);
#171 = EDGE_CURVE('',#172,#163,#174,.T.);
#172 = VERTEX_POINT('',#173);
#173 = CARTESIAN_POINT('',(78.393610872034,-53.19390538304,
    88.77999999255));
#174 = LINE('',#175,#176);
#175 = CARTESIAN_POINT('',(78.393610872035,-53.19390538304,
    -1.220000014901));
#176 = VECTOR('',#177,1.);
#177 = DIRECTION('',(-0.,-0.,-1.));
#178 = ORIENTED_EDGE('',*,*,#179,.F.);
#179 = EDGE_CURVE('',#180,#172,#182,.T.);
#180 = VERTEX_POINT('',#181);
#181 = CARTESIAN_POINT('',(78.22830699066,-151.5962273847,
    88.779999992549));
#182 = CIRCLE('',#183,102.5);
#183 = AXIS2_PLACEMENT_3D('',#184,#185,#186);
#184 = CARTESIAN_POINT('',(168.230178833,-102.5461196899,88.779999985099
    ));
#185 = DIRECTION('',(0.,0.,-1.));
#186 = DIRECTION('',(1.,0.,0.));
#187 = ORIENTED_EDGE('',*,*,#188,.T.);
#188 = EDGE_CURVE('',#180,#189,#191,.T.);
#189 = VERTEX_POINT('',#190);
#190 = CARTESIAN_POINT('',(78.228306990659,-151.5962273847,72.98));
#191 = LINE('',#192,#193);
#192 = CARTESIAN_POINT('',(78.228306990659,-151.5962273847,
    -1.220000014901));
#193 = VECTOR('',#194,1.);
#194 = DIRECTION('',(-0.,-0.,-1.));
#195 = ORIENTED_EDGE('',*,*,#196,.F.);
#196 = EDGE_CURVE('',#197,#189,#199,.T.);
#197 = VERTEX_POINT('',#198);
#198 = CARTESIAN_POINT('',(82.564130454783,-158.827361283,72.98));
#199 = CIRCLE('',#200,102.5);
#200 = AXIS2_PLACEMENT_3D('',#201,#202,#203);
#201 = CARTESIAN_POINT('',(168.230178833,-102.5461196899,72.98));
#202 = DIRECTION('',(0.,0.,-1.));
#203 = DIRECTION('',(1.,0.,0.));
#204 = ORIENTED_EDGE('',*,*,#205,.F.);
#205 = EDGE_CURVE('',#206,#197,#208,.T.);
#206 = VERTEX_POINT('',#207);
#207 = CARTESIAN_POINT('',(82.564130454783,-158.827361283,
    88.779999992549));
#208 = LINE('',#209,#210);
#209 = CARTESIAN_POINT('',(82.564130454783,-158.827361283,
    -1.220000014901));
#210 = VECTOR('',#211,1.);
#211 = DIRECTION('',(-0.,-0.,-1.));
#212 = ORIENTED_EDGE('',*,*,#213,.F.);
#213 = EDGE_CURVE('',#97,#206,#214,.T.);
#214 = CIRCLE('',#215,102.5);
#215 = AXIS2_PLACEMENT_3D('',#216,#217,#218);
#216 = CARTESIAN_POINT('',(168.230178833,-102.5461196899,88.779999985099
    ));
#217 = DIRECTION('',(0.,0.,-1.));
#218 = DIRECTION('',(1.,0.,0.));
#219 = ORIENTED_EDGE('',*,*,#96,.T.);
#220 = CYLINDRICAL_SURFACE('',#221,102.5);
#221 = AXIS2_PLACEMENT_3D('',#222,#223,#224);
#222 = CARTESIAN_POINT('',(168.230178833,-102.5461196899,-1.220000014901
    ));
#223 = DIRECTION('',(-0.,-0.,-1.));
#224 = DIRECTION('',(1.,0.,0.));
#225 = ADVANCED_FACE('',(#226),#267,.T.);
#226 = FACE_BOUND('',#227,.T.);
#227 = EDGE_LOOP('',(#228,#229,#237,#245,#253,#261));
#228 = ORIENTED_EDGE('',*,*,#205,.T.);
#229 = ORIENTED_EDGE('',*,*,#230,.T.);
#230 = EDGE_CURVE('',#197,#231,#233,.T.);
#231 = VERTEX_POINT('',#232);
#232 = CARTESIAN_POINT('',(91.848416451356,-154.2991124409,72.98));
#233 = LINE('',#234,#235);
#234 = CARTESIAN_POINT('',(90.275526870333,-155.0662619478,72.98));
#235 = VECTOR('',#236,1.);
#236 = DIRECTION('',(0.898794046299,0.438371146789,0.));
#237 = ORIENTED_EDGE('',*,*,#238,.T.);
#238 = EDGE_CURVE('',#231,#239,#241,.T.);
#239 = VERTEX_POINT('',#240);
#240 = CARTESIAN_POINT('',(91.848416451356,-154.2991124409,82.78));
#241 = LINE('',#242,#243);
#242 = CARTESIAN_POINT('',(91.848416451356,-154.2991124409,72.98));
#243 = VECTOR('',#244,1.);
#244 = DIRECTION('',(0.,0.,1.));
#245 = ORIENTED_EDGE('',*,*,#246,.T.);
#246 = EDGE_CURVE('',#239,#247,#249,.T.);
#247 = VERTEX_POINT('',#248);
#248 = CARTESIAN_POINT('',(104.11695518334,-148.3153462872,82.78));
#249 = LINE('',#250,#251);
#250 = CARTESIAN_POINT('',(91.848416451356,-154.2991124409,82.78));
#251 = VECTOR('',#252,1.);
#252 = DIRECTION('',(0.898794046299,0.438371146789,0.));
#253 = ORIENTED_EDGE('',*,*,#254,.T.);
#254 = EDGE_CURVE('',#247,#255,#257,.T.);
#255 = VERTEX_POINT('',#256);
#256 = CARTESIAN_POINT('',(104.11695518334,-148.3153462872,88.78));
#257 = LINE('',#258,#259);
#258 = CARTESIAN_POINT('',(104.11695518334,-148.3153462872,86.78));
#259 = VECTOR('',#260,1.);
#260 = DIRECTION('',(0.,0.,1.));
#261 = ORIENTED_EDGE('',*,*,#262,.T.);
#262 = EDGE_CURVE('',#255,#206,#263,.T.);
#263 = LINE('',#264,#265);
#264 = CARTESIAN_POINT('',(90.275526870333,-155.0662619478,88.78));
#265 = VECTOR('',#266,1.);
#266 = DIRECTION('',(-0.898794046299,-0.438371146789,-0.));
#267 = PLANE('',#268);
#268 = AXIS2_PLACEMENT_3D('',#269,#270,#271);
#269 = CARTESIAN_POINT('',(91.24314847042,-154.59432136,82.503422330097)
  );
#270 = DIRECTION('',(0.438371146789,-0.898794046299,-0.));
#271 = DIRECTION('',(0.,0.,-1.));
#272 = ADVANCED_FACE('',(#273),#291,.T.);
#273 = FACE_BOUND('',#274,.T.);
#274 = EDGE_LOOP('',(#275,#283,#289,#290));
#275 = ORIENTED_EDGE('',*,*,#276,.F.);
#276 = EDGE_CURVE('',#277,#189,#279,.T.);
#277 = VERTEX_POINT('',#278);
#278 = CARTESIAN_POINT('',(88.166098818328,-146.749242452,72.98));
#279 = LINE('',#280,#281);
#280 = CARTESIAN_POINT('',(100.43463755031,-140.7654762983,72.98));
#281 = VECTOR('',#282,1.);
#282 = DIRECTION('',(-0.898794046299,-0.438371146789,0.));
#283 = ORIENTED_EDGE('',*,*,#284,.T.);
#284 = EDGE_CURVE('',#277,#231,#285,.T.);
#285 = LINE('',#286,#287);
#286 = CARTESIAN_POINT('',(88.166098818328,-146.749242452,72.98));
#287 = VECTOR('',#288,1.);
#288 = DIRECTION('',(0.438371146789,-0.898794046299,0.));
#289 = ORIENTED_EDGE('',*,*,#230,.F.);
#290 = ORIENTED_EDGE('',*,*,#196,.T.);
#291 = PLANE('',#292);
#292 = AXIS2_PLACEMENT_3D('',#293,#294,#295);
#293 = CARTESIAN_POINT('',(84.726842612835,-153.0996079338,72.98));
#294 = DIRECTION('',(0.,-0.,-1.));
#295 = DIRECTION('',(-0.898794046299,-0.438371146789,0.));
#296 = ADVANCED_FACE('',(#297),#331,.T.);
#297 = FACE_BOUND('',#298,.T.);
#298 = EDGE_LOOP('',(#299,#309,#317,#323,#324,#325));
#299 = ORIENTED_EDGE('',*,*,#300,.F.);
#300 = EDGE_CURVE('',#301,#303,#305,.T.);
#301 = VERTEX_POINT('',#302);
#302 = CARTESIAN_POINT('',(100.43463755031,-140.7654762983,82.78));
#303 = VERTEX_POINT('',#304);
#304 = CARTESIAN_POINT('',(100.43463755031,-140.7654762983,88.78));
#305 = LINE('',#306,#307);
#306 = CARTESIAN_POINT('',(100.43463755031,-140.7654762983,86.78));
#307 = VECTOR('',#308,1.);
#308 = DIRECTION('',(0.,0.,1.));
#309 = ORIENTED_EDGE('',*,*,#310,.T.);
#310 = EDGE_CURVE('',#301,#311,#313,.T.);
#311 = VERTEX_POINT('',#312);
#312 = CARTESIAN_POINT('',(88.166098818328,-146.749242452,82.78));
#313 = LINE('',#314,#315);
#314 = CARTESIAN_POINT('',(100.74921546651,-140.6120463969,82.78));
#315 = VECTOR('',#316,1.);
#316 = DIRECTION('',(-0.898794046299,-0.438371146789,0.));
#317 = ORIENTED_EDGE('',*,*,#318,.F.);
#318 = EDGE_CURVE('',#277,#311,#319,.T.);
#319 = LINE('',#320,#321);
#320 = CARTESIAN_POINT('',(88.166098818328,-146.749242452,72.98));
#321 = VECTOR('',#322,1.);
#322 = DIRECTION('',(0.,0.,1.));
#323 = ORIENTED_EDGE('',*,*,#276,.T.);
#324 = ORIENTED_EDGE('',*,*,#188,.F.);
#325 = ORIENTED_EDGE('',*,*,#326,.F.);
#326 = EDGE_CURVE('',#303,#180,#327,.T.);
#327 = LINE('',#328,#329);
#328 = CARTESIAN_POINT('',(86.593209237305,-147.5163919589,88.78));
#329 = VECTOR('',#330,1.);
#330 = DIRECTION('',(-0.898794046299,-0.438371146789,-0.));
#331 = PLANE('',#332);
#332 = AXIS2_PLACEMENT_3D('',#333,#334,#335);
#333 = CARTESIAN_POINT('',(87.560830837392,-147.0444513711,
    82.503422330097));
#334 = DIRECTION('',(-0.438371146789,0.898794046299,0.));
#335 = DIRECTION('',(0.,0.,1.));
#336 = ADVANCED_FACE('',(#337),#378,.T.);
#337 = FACE_BOUND('',#338,.T.);
#338 = EDGE_LOOP('',(#339,#340,#348,#356,#364,#372));
#339 = ORIENTED_EDGE('',*,*,#171,.T.);
#340 = ORIENTED_EDGE('',*,*,#341,.T.);
#341 = EDGE_CURVE('',#163,#342,#344,.T.);
#342 = VERTEX_POINT('',#343);
#343 = CARTESIAN_POINT('',(88.171358975256,-58.17591688038,72.98));
#344 = LINE('',#345,#346);
#345 = CARTESIAN_POINT('',(86.612097557927,-57.38143350584,72.98));
#346 = VECTOR('',#347,1.);
#347 = DIRECTION('',(0.891006524188,-0.45399049974,0.));
#348 = ORIENTED_EDGE('',*,*,#349,.T.);
#349 = EDGE_CURVE('',#342,#350,#352,.T.);
#350 = VERTEX_POINT('',#351);
#351 = CARTESIAN_POINT('',(88.171358975256,-58.17591688038,82.78));
#352 = LINE('',#353,#354);
#353 = CARTESIAN_POINT('',(88.171358975256,-58.17591688038,72.98));
#354 = VECTOR('',#355,1.);
#355 = DIRECTION('',(0.,0.,1.));
#356 = ORIENTED_EDGE('',*,*,#357,.T.);
#357 = EDGE_CURVE('',#350,#358,#360,.T.);
#358 = VERTEX_POINT('',#359);
#359 = CARTESIAN_POINT('',(100.33359803042,-64.37288720183,82.78));
#360 = LINE('',#361,#362);
#361 = CARTESIAN_POINT('',(88.171358975256,-58.17591688038,82.78));
#362 = VECTOR('',#363,1.);
#363 = DIRECTION('',(0.891006524188,-0.45399049974,0.));
#364 = ORIENTED_EDGE('',*,*,#365,.T.);
#365 = EDGE_CURVE('',#358,#366,#368,.T.);
#366 = VERTEX_POINT('',#367);
#367 = CARTESIAN_POINT('',(100.33359803042,-64.37288720183,88.78));
#368 = LINE('',#369,#370);
#369 = CARTESIAN_POINT('',(100.33359803042,-64.37288720183,86.78));
#370 = VECTOR('',#371,1.);
#371 = DIRECTION('',(0.,0.,1.));
#372 = ORIENTED_EDGE('',*,*,#373,.T.);
#373 = EDGE_CURVE('',#366,#172,#374,.T.);
#374 = LINE('',#375,#376);
#375 = CARTESIAN_POINT('',(86.612097557927,-57.38143350584,88.78));
#376 = VECTOR('',#377,1.);
#377 = DIRECTION('',(-0.891006524188,0.45399049974,-0.));
#378 = PLANE('',#379);
#379 = AXIS2_PLACEMENT_3D('',#380,#381,#382);
#380 = CARTESIAN_POINT('',(87.571335285606,-57.87018954021,
    82.503422330097));
#381 = DIRECTION('',(-0.45399049974,-0.891006524188,-0.));
#382 = DIRECTION('',(0.,0.,-1.));
#383 = ADVANCED_FACE('',(#384),#402,.T.);
#384 = FACE_BOUND('',#385,.T.);
#385 = EDGE_LOOP('',(#386,#394,#400,#401));
#386 = ORIENTED_EDGE('',*,*,#387,.F.);
#387 = EDGE_CURVE('',#388,#155,#390,.T.);
#388 = VERTEX_POINT('',#389);
#389 = CARTESIAN_POINT('',(91.984879173068,-50.6914620772,72.98));
#390 = LINE('',#391,#392);
#391 = CARTESIAN_POINT('',(104.14711822824,-56.88843239864,72.98));
#392 = VECTOR('',#393,1.);
#393 = DIRECTION('',(-0.891006524188,0.45399049974,0.));
#394 = ORIENTED_EDGE('',*,*,#395,.T.);
#395 = EDGE_CURVE('',#388,#342,#396,.T.);
#396 = LINE('',#397,#398);
#397 = CARTESIAN_POINT('',(91.984879173068,-50.6914620772,72.98));
#398 = VECTOR('',#399,1.);
#399 = DIRECTION('',(-0.45399049974,-0.891006524188,0.));
#400 = ORIENTED_EDGE('',*,*,#341,.F.);
#401 = ORIENTED_EDGE('',*,*,#162,.T.);
#402 = PLANE('',#403);
#403 = AXIS2_PLACEMENT_3D('',#404,#405,#406);
#404 = CARTESIAN_POINT('',(84.843455744556,-51.76649529282,72.98));
#405 = DIRECTION('',(-0.,0.,-1.));
#406 = DIRECTION('',(-0.891006524188,0.45399049974,0.));
#407 = ADVANCED_FACE('',(#408),#442,.T.);
#408 = FACE_BOUND('',#409,.T.);
#409 = EDGE_LOOP('',(#410,#420,#428,#434,#435,#436));
#410 = ORIENTED_EDGE('',*,*,#411,.F.);
#411 = EDGE_CURVE('',#412,#414,#416,.T.);
#412 = VERTEX_POINT('',#413);
#413 = CARTESIAN_POINT('',(104.14711822824,-56.88843239864,82.78));
#414 = VERTEX_POINT('',#415);
#415 = CARTESIAN_POINT('',(104.14711822824,-56.88843239864,88.78));
#416 = LINE('',#417,#418);
#417 = CARTESIAN_POINT('',(104.14711822824,-56.88843239864,86.78));
#418 = VECTOR('',#419,1.);
#419 = DIRECTION('',(0.,0.,1.));
#420 = ORIENTED_EDGE('',*,*,#421,.T.);
#421 = EDGE_CURVE('',#412,#422,#424,.T.);
#422 = VERTEX_POINT('',#423);
#423 = CARTESIAN_POINT('',(91.984879173068,-50.6914620772,82.78));
#424 = LINE('',#425,#426);
#425 = CARTESIAN_POINT('',(104.4589705117,-57.04732907355,82.78));
#426 = VECTOR('',#427,1.);
#427 = DIRECTION('',(-0.891006524188,0.45399049974,0.));
#428 = ORIENTED_EDGE('',*,*,#429,.F.);
#429 = EDGE_CURVE('',#388,#422,#430,.T.);
#430 = LINE('',#431,#432);
#431 = CARTESIAN_POINT('',(91.984879173068,-50.6914620772,72.98));
#432 = VECTOR('',#433,1.);
#433 = DIRECTION('',(0.,0.,1.));
#434 = ORIENTED_EDGE('',*,*,#387,.T.);
#435 = ORIENTED_EDGE('',*,*,#154,.F.);
#436 = ORIENTED_EDGE('',*,*,#437,.F.);
#437 = EDGE_CURVE('',#414,#146,#438,.T.);
#438 = LINE('',#439,#440);
#439 = CARTESIAN_POINT('',(90.425617755739,-49.89697870266,88.78));
#440 = VECTOR('',#441,1.);
#441 = DIRECTION('',(-0.891006524188,0.45399049974,-0.));
#442 = PLANE('',#443);
#443 = AXIS2_PLACEMENT_3D('',#444,#445,#446);
#444 = CARTESIAN_POINT('',(91.384855483418,-50.38573473702,
    82.503422330097));
#445 = DIRECTION('',(0.45399049974,0.891006524188,0.));
#446 = DIRECTION('',(0.,0.,1.));
#447 = ADVANCED_FACE('',(#448),#464,.T.);
#448 = FACE_BOUND('',#449,.T.);
#449 = EDGE_LOOP('',(#450,#456,#457,#463));
#450 = ORIENTED_EDGE('',*,*,#451,.T.);
#451 = EDGE_CURVE('',#247,#301,#452,.T.);
#452 = LINE('',#453,#454);
#453 = CARTESIAN_POINT('',(103.19637577508,-146.42787879,82.78));
#454 = VECTOR('',#455,1.);
#455 = DIRECTION('',(-0.438371146789,0.898794046299,0.));
#456 = ORIENTED_EDGE('',*,*,#300,.T.);
#457 = ORIENTED_EDGE('',*,*,#458,.F.);
#458 = EDGE_CURVE('',#255,#303,#459,.T.);
#459 = LINE('',#460,#461);
#460 = CARTESIAN_POINT('',(104.11695518334,-148.3153462872,88.78));
#461 = VECTOR('',#462,1.);
#462 = DIRECTION('',(-0.438371146789,0.898794046299,0.));
#463 = ORIENTED_EDGE('',*,*,#254,.F.);
#464 = PLANE('',#465);
#465 = AXIS2_PLACEMENT_3D('',#466,#467,#468);
#466 = CARTESIAN_POINT('',(102.27579636682,-144.5404112928,85.78));
#467 = DIRECTION('',(0.898794046299,0.438371146789,0.));
#468 = DIRECTION('',(0.,0.,1.));
#469 = ADVANCED_FACE('',(#470,#481),#492,.T.);
#470 = FACE_BOUND('',#471,.T.);
#471 = EDGE_LOOP('',(#472,#473,#474,#475));
#472 = ORIENTED_EDGE('',*,*,#310,.F.);
#473 = ORIENTED_EDGE('',*,*,#451,.F.);
#474 = ORIENTED_EDGE('',*,*,#246,.F.);
#475 = ORIENTED_EDGE('',*,*,#476,.F.);
#476 = EDGE_CURVE('',#311,#239,#477,.T.);
#477 = LINE('',#478,#479);
#478 = CARTESIAN_POINT('',(88.166098818328,-146.749242452,82.78));
#479 = VECTOR('',#480,1.);
#480 = DIRECTION('',(0.438371146789,-0.898794046299,0.));
#481 = FACE_BOUND('',#482,.T.);
#482 = EDGE_LOOP('',(#483));
#483 = ORIENTED_EDGE('',*,*,#484,.F.);
#484 = EDGE_CURVE('',#485,#485,#487,.T.);
#485 = VERTEX_POINT('',#486);
#486 = CARTESIAN_POINT('',(99.534474525613,-145.8774432905,82.78));
#487 = CIRCLE('',#488,1.5);
#488 = AXIS2_PLACEMENT_3D('',#489,#490,#491);
#489 = CARTESIAN_POINT('',(98.186283456165,-146.5350000106,82.78));
#490 = DIRECTION('',(0.,0.,-1.));
#491 = DIRECTION('',(0.898794046299,0.438371146789,0.));
#492 = PLANE('',#493);
#493 = AXIS2_PLACEMENT_3D('',#494,#495,#496);
#494 = CARTESIAN_POINT('',(96.141527000834,-147.5322943696,82.78));
#495 = DIRECTION('',(0.,-0.,-1.));
#496 = DIRECTION('',(-0.898794046299,-0.438371146789,0.));
#497 = ADVANCED_FACE('',(#498),#504,.T.);
#498 = FACE_BOUND('',#499,.T.);
#499 = EDGE_LOOP('',(#500,#501,#502,#503));
#500 = ORIENTED_EDGE('',*,*,#318,.T.);
#501 = ORIENTED_EDGE('',*,*,#476,.T.);
#502 = ORIENTED_EDGE('',*,*,#238,.F.);
#503 = ORIENTED_EDGE('',*,*,#284,.F.);
#504 = PLANE('',#505);
#505 = AXIS2_PLACEMENT_3D('',#506,#507,#508);
#506 = CARTESIAN_POINT('',(88.166098818328,-146.749242452,72.98));
#507 = DIRECTION('',(0.898794046299,0.438371146789,0.));
#508 = DIRECTION('',(0.438371146789,-0.898794046299,0.));
#509 = ADVANCED_FACE('',(#510),#526,.T.);
#510 = FACE_BOUND('',#511,.T.);
#511 = EDGE_LOOP('',(#512,#518,#519,#525));
#512 = ORIENTED_EDGE('',*,*,#513,.T.);
#513 = EDGE_CURVE('',#358,#412,#514,.T.);
#514 = LINE('',#515,#516);
#515 = CARTESIAN_POINT('',(101.28697807988,-62.50177350103,82.78));
#516 = VECTOR('',#517,1.);
#517 = DIRECTION('',(0.45399049974,0.891006524188,0.));
#518 = ORIENTED_EDGE('',*,*,#411,.T.);
#519 = ORIENTED_EDGE('',*,*,#520,.F.);
#520 = EDGE_CURVE('',#366,#414,#521,.T.);
#521 = LINE('',#522,#523);
#522 = CARTESIAN_POINT('',(100.33359803042,-64.37288720183,88.78));
#523 = VECTOR('',#524,1.);
#524 = DIRECTION('',(0.45399049974,0.891006524188,0.));
#525 = ORIENTED_EDGE('',*,*,#365,.F.);
#526 = PLANE('',#527);
#527 = AXIS2_PLACEMENT_3D('',#528,#529,#530);
#528 = CARTESIAN_POINT('',(102.24035812933,-60.63065980024,85.78));
#529 = DIRECTION('',(0.891006524188,-0.45399049974,0.));
#530 = DIRECTION('',(0.,0.,1.));
#531 = ADVANCED_FACE('',(#532,#543),#554,.T.);
#532 = FACE_BOUND('',#533,.T.);
#533 = EDGE_LOOP('',(#534,#535,#536,#537));
#534 = ORIENTED_EDGE('',*,*,#421,.F.);
#535 = ORIENTED_EDGE('',*,*,#513,.F.);
#536 = ORIENTED_EDGE('',*,*,#357,.F.);
#537 = ORIENTED_EDGE('',*,*,#538,.F.);
#538 = EDGE_CURVE('',#422,#350,#539,.T.);
#539 = LINE('',#540,#541);
#540 = CARTESIAN_POINT('',(91.984879173068,-50.6914620772,82.78));
#541 = VECTOR('',#542,1.);
#542 = DIRECTION('',(-0.45399049974,-0.891006524188,0.));
#543 = FACE_BOUND('',#544,.T.);
#544 = EDGE_LOOP('',(#545));
#545 = ORIENTED_EDGE('',*,*,#546,.F.);
#546 = EDGE_CURVE('',#547,#547,#549,.T.);
#547 = VERTEX_POINT('',#548);
#548 = CARTESIAN_POINT('',(99.522788230559,-59.24598877603,82.78));
#549 = CIRCLE('',#550,1.5);
#550 = AXIS2_PLACEMENT_3D('',#551,#552,#553);
#551 = CARTESIAN_POINT('',(98.186278444277,-58.56500302642,82.78));
#552 = DIRECTION('',(0.,-0.,-1.));
#553 = DIRECTION('',(0.891006524188,-0.45399049974,0.));
#554 = PLANE('',#555);
#555 = AXIS2_PLACEMENT_3D('',#556,#557,#558);
#556 = CARTESIAN_POINT('',(96.159238601748,-57.53217463951,82.78));
#557 = DIRECTION('',(-0.,0.,-1.));
#558 = DIRECTION('',(-0.891006524188,0.45399049974,0.));
#559 = ADVANCED_FACE('',(#560),#566,.T.);
#560 = FACE_BOUND('',#561,.T.);
#561 = EDGE_LOOP('',(#562,#563,#564,#565));
#562 = ORIENTED_EDGE('',*,*,#429,.T.);
#563 = ORIENTED_EDGE('',*,*,#538,.T.);
#564 = ORIENTED_EDGE('',*,*,#349,.F.);
#565 = ORIENTED_EDGE('',*,*,#395,.F.);
#566 = PLANE('',#567);
#567 = AXIS2_PLACEMENT_3D('',#568,#569,#570);
#568 = CARTESIAN_POINT('',(91.984879173068,-50.6914620772,72.98));
#569 = DIRECTION('',(0.891006524188,-0.45399049974,0.));
#570 = DIRECTION('',(-0.45399049974,-0.891006524188,0.));
#571 = ADVANCED_FACE('',(#572),#590,.F.);
#572 = FACE_BOUND('',#573,.T.);
#573 = EDGE_LOOP('',(#574,#583,#588,#589));
#574 = ORIENTED_EDGE('',*,*,#575,.F.);
#575 = EDGE_CURVE('',#576,#576,#578,.T.);
#576 = VERTEX_POINT('',#577);
#577 = CARTESIAN_POINT('',(99.534474525613,-145.8774432905,
    84.228924226216));
#578 = CIRCLE('',#579,1.5);
#579 = AXIS2_PLACEMENT_3D('',#580,#581,#582);
#580 = CARTESIAN_POINT('',(98.186283456165,-146.5350000106,
    84.228924226216));
#581 = DIRECTION('',(0.,0.,-1.));
#582 = DIRECTION('',(-0.438371146789,0.898794046299,0.));
#583 = ORIENTED_EDGE('',*,*,#584,.T.);
#584 = EDGE_CURVE('',#576,#485,#585,.T.);
#585 = B_SPLINE_CURVE_WITH_KNOTS('',1,(#586,#587),.UNSPECIFIED.,.F.,.F.,
  (2,2),(-13.8,-9.8),.PIECEWISE_BEZIER_KNOTS.);
#586 = CARTESIAN_POINT('',(99.534474525613,-145.8774432905,86.78));
#587 = CARTESIAN_POINT('',(99.534474525613,-145.8774432905,82.78));
#588 = ORIENTED_EDGE('',*,*,#484,.T.);
#589 = ORIENTED_EDGE('',*,*,#584,.F.);
#590 = CYLINDRICAL_SURFACE('',#591,1.5);
#591 = AXIS2_PLACEMENT_3D('',#592,#593,#594);
#592 = CARTESIAN_POINT('',(98.186283456165,-146.5350000106,72.98));
#593 = DIRECTION('',(0.,-0.,-1.));
#594 = DIRECTION('',(0.898794046299,0.438371146789,0.));
#595 = ADVANCED_FACE('',(#596),#614,.F.);
#596 = FACE_BOUND('',#597,.T.);
#597 = EDGE_LOOP('',(#598,#607,#612,#613));
#598 = ORIENTED_EDGE('',*,*,#599,.F.);
#599 = EDGE_CURVE('',#600,#600,#602,.T.);
#600 = VERTEX_POINT('',#601);
#601 = CARTESIAN_POINT('',(99.522788230559,-59.24598877603,
    84.228924226216));
#602 = CIRCLE('',#603,1.5);
#603 = AXIS2_PLACEMENT_3D('',#604,#605,#606);
#604 = CARTESIAN_POINT('',(98.186278444277,-58.56500302642,
    84.228924226216));
#605 = DIRECTION('',(0.,0.,-1.));
#606 = DIRECTION('',(0.45399049974,0.891006524188,0.));
#607 = ORIENTED_EDGE('',*,*,#608,.T.);
#608 = EDGE_CURVE('',#600,#547,#609,.T.);
#609 = B_SPLINE_CURVE_WITH_KNOTS('',1,(#610,#611),.UNSPECIFIED.,.F.,.F.,
  (2,2),(-13.8,-9.8),.PIECEWISE_BEZIER_KNOTS.);
#610 = CARTESIAN_POINT('',(99.522788230559,-59.24598877603,86.78));
#611 = CARTESIAN_POINT('',(99.522788230559,-59.24598877603,82.78));
#612 = ORIENTED_EDGE('',*,*,#546,.T.);
#613 = ORIENTED_EDGE('',*,*,#608,.F.);
#614 = CYLINDRICAL_SURFACE('',#615,1.5);
#615 = AXIS2_PLACEMENT_3D('',#616,#617,#618);
#616 = CARTESIAN_POINT('',(98.186278444277,-58.56500302642,72.98));
#617 = DIRECTION('',(-0.,0.,-1.));
#618 = DIRECTION('',(0.891006524188,-0.45399049974,0.));
#619 = ADVANCED_FACE('',(#620),#639,.F.);
#620 = FACE_BOUND('',#621,.T.);
#621 = EDGE_LOOP('',(#622,#630,#637,#638));
#622 = ORIENTED_EDGE('',*,*,#623,.F.);
#623 = EDGE_CURVE('',#624,#600,#626,.T.);
#624 = VERTEX_POINT('',#625);
#625 = CARTESIAN_POINT('',(100.63654638579,-59.8134769007,84.98));
#626 = LINE('',#627,#628);
#627 = CARTESIAN_POINT('',(100.63654638579,-59.8134769007,84.98));
#628 = VECTOR('',#629,1.);
#629 = DIRECTION('',(-0.763741657247,0.389145811206,-0.51503807491));
#630 = ORIENTED_EDGE('',*,*,#631,.T.);
#631 = EDGE_CURVE('',#624,#624,#632,.T.);
#632 = CIRCLE('',#633,2.75);
#633 = AXIS2_PLACEMENT_3D('',#634,#635,#636);
#634 = CARTESIAN_POINT('',(98.186278444277,-58.56500302642,84.98));
#635 = DIRECTION('',(-0.,0.,1.));
#636 = DIRECTION('',(0.891006524188,-0.45399049974,0.));
#637 = ORIENTED_EDGE('',*,*,#623,.T.);
#638 = ORIENTED_EDGE('',*,*,#599,.T.);
#639 = CONICAL_SURFACE('',#640,2.75,1.029744258677);
#640 = AXIS2_PLACEMENT_3D('',#641,#642,#643);
#641 = CARTESIAN_POINT('',(98.186278444277,-58.56500302642,84.98));
#642 = DIRECTION('',(0.,0.,1.));
#643 = DIRECTION('',(0.891006524188,-0.45399049974,0.));
#644 = ADVANCED_FACE('',(#645),#663,.F.);
#645 = FACE_BOUND('',#646,.T.);
#646 = EDGE_LOOP('',(#647,#656,#661,#662));
#647 = ORIENTED_EDGE('',*,*,#648,.T.);
#648 = EDGE_CURVE('',#649,#649,#651,.T.);
#649 = VERTEX_POINT('',#650);
#650 = CARTESIAN_POINT('',(100.63654638579,-59.8134769007,88.78));
#651 = CIRCLE('',#652,2.75);
#652 = AXIS2_PLACEMENT_3D('',#653,#654,#655);
#653 = CARTESIAN_POINT('',(98.186278444277,-58.56500302642,88.78));
#654 = DIRECTION('',(-0.,0.,1.));
#655 = DIRECTION('',(0.891006524188,-0.45399049974,0.));
#656 = ORIENTED_EDGE('',*,*,#657,.T.);
#657 = EDGE_CURVE('',#649,#624,#658,.T.);
#658 = B_SPLINE_CURVE_WITH_KNOTS('',1,(#659,#660),.UNSPECIFIED.,.F.,.F.,
  (2,2),(-2.,1.8),.PIECEWISE_BEZIER_KNOTS.);
#659 = CARTESIAN_POINT('',(100.63654638579,-59.8134769007,88.78));
#660 = CARTESIAN_POINT('',(100.63654638579,-59.8134769007,84.98));
#661 = ORIENTED_EDGE('',*,*,#631,.F.);
#662 = ORIENTED_EDGE('',*,*,#657,.F.);
#663 = CYLINDRICAL_SURFACE('',#664,2.75);
#664 = AXIS2_PLACEMENT_3D('',#665,#666,#667);
#665 = CARTESIAN_POINT('',(98.186278444277,-58.56500302642,86.78));
#666 = DIRECTION('',(-0.,0.,-1.));
#667 = DIRECTION('',(0.891006524188,-0.45399049974,0.));
#668 = ADVANCED_FACE('',(#669),#688,.F.);
#669 = FACE_BOUND('',#670,.T.);
#670 = EDGE_LOOP('',(#671,#679,#686,#687));
#671 = ORIENTED_EDGE('',*,*,#672,.F.);
#672 = EDGE_CURVE('',#673,#576,#675,.T.);
#673 = VERTEX_POINT('',#674);
#674 = CARTESIAN_POINT('',(100.65796708348,-145.329479357,84.98));
#675 = LINE('',#676,#677);
#676 = CARTESIAN_POINT('',(100.65796708348,-145.329479357,84.98));
#677 = VECTOR('',#678,1.);
#678 = DIRECTION('',(-0.770416866553,-0.375757412599,-0.51503807491));
#679 = ORIENTED_EDGE('',*,*,#680,.T.);
#680 = EDGE_CURVE('',#673,#673,#681,.T.);
#681 = CIRCLE('',#682,2.75);
#682 = AXIS2_PLACEMENT_3D('',#683,#684,#685);
#683 = CARTESIAN_POINT('',(98.186283456165,-146.5350000106,84.98));
#684 = DIRECTION('',(0.,-0.,1.));
#685 = DIRECTION('',(0.898794046299,0.438371146789,0.));
#686 = ORIENTED_EDGE('',*,*,#672,.T.);
#687 = ORIENTED_EDGE('',*,*,#575,.T.);
#688 = CONICAL_SURFACE('',#689,2.75,1.029744258677);
#689 = AXIS2_PLACEMENT_3D('',#690,#691,#692);
#690 = CARTESIAN_POINT('',(98.186283456165,-146.5350000106,84.98));
#691 = DIRECTION('',(0.,0.,1.));
#692 = DIRECTION('',(0.898794046299,0.438371146789,0.));
#693 = ADVANCED_FACE('',(#694),#712,.F.);
#694 = FACE_BOUND('',#695,.T.);
#695 = EDGE_LOOP('',(#696,#705,#710,#711));
#696 = ORIENTED_EDGE('',*,*,#697,.T.);
#697 = EDGE_CURVE('',#698,#698,#700,.T.);
#698 = VERTEX_POINT('',#699);
#699 = CARTESIAN_POINT('',(100.65796708348,-145.329479357,88.78));
#700 = CIRCLE('',#701,2.75);
#701 = AXIS2_PLACEMENT_3D('',#702,#703,#704);
#702 = CARTESIAN_POINT('',(98.186283456165,-146.5350000106,88.78));
#703 = DIRECTION('',(0.,-0.,1.));
#704 = DIRECTION('',(0.898794046299,0.438371146789,0.));
#705 = ORIENTED_EDGE('',*,*,#706,.T.);
#706 = EDGE_CURVE('',#698,#673,#707,.T.);
#707 = B_SPLINE_CURVE_WITH_KNOTS('',1,(#708,#709),.UNSPECIFIED.,.F.,.F.,
  (2,2),(-2.,1.8),.PIECEWISE_BEZIER_KNOTS.);
#708 = CARTESIAN_POINT('',(100.65796708348,-145.329479357,88.78));
#709 = CARTESIAN_POINT('',(100.65796708348,-145.329479357,84.98));
#710 = ORIENTED_EDGE('',*,*,#680,.F.);
#711 = ORIENTED_EDGE('',*,*,#706,.F.);
#712 = CYLINDRICAL_SURFACE('',#713,2.75);
#713 = AXIS2_PLACEMENT_3D('',#714,#715,#716);
#714 = CARTESIAN_POINT('',(98.186283456165,-146.5350000106,86.78));
#715 = DIRECTION('',(0.,-0.,-1.));
#716 = DIRECTION('',(0.898794046299,0.438371146789,0.));
#717 = ADVANCED_FACE('',(#718,#732,#735),#738,.T.);
#718 = FACE_BOUND('',#719,.T.);
#719 = EDGE_LOOP('',(#720,#721,#722,#723,#724,#725,#726,#727,#728,#729,
    #730,#731));
#720 = ORIENTED_EDGE('',*,*,#121,.F.);
#721 = ORIENTED_EDGE('',*,*,#40,.T.);
#722 = ORIENTED_EDGE('',*,*,#104,.F.);
#723 = ORIENTED_EDGE('',*,*,#213,.T.);
#724 = ORIENTED_EDGE('',*,*,#262,.F.);
#725 = ORIENTED_EDGE('',*,*,#458,.T.);
#726 = ORIENTED_EDGE('',*,*,#326,.T.);
#727 = ORIENTED_EDGE('',*,*,#179,.T.);
#728 = ORIENTED_EDGE('',*,*,#373,.F.);
#729 = ORIENTED_EDGE('',*,*,#520,.T.);
#730 = ORIENTED_EDGE('',*,*,#437,.T.);
#731 = ORIENTED_EDGE('',*,*,#145,.T.);
#732 = FACE_BOUND('',#733,.T.);
#733 = EDGE_LOOP('',(#734));
#734 = ORIENTED_EDGE('',*,*,#697,.F.);
#735 = FACE_BOUND('',#736,.T.);
#736 = EDGE_LOOP('',(#737));
#737 = ORIENTED_EDGE('',*,*,#648,.F.);
#738 = PLANE('',#739);
#739 = AXIS2_PLACEMENT_3D('',#740,#741,#742);
#740 = CARTESIAN_POINT('',(85.10337998461,-102.5447654459,
    88.779999988295));
#741 = DIRECTION('',(-7.486051846416E-11,-2.03088163535E-14,1.));
#742 = DIRECTION('',(1.,0.,7.486051846416E-11));
#743 = ( GEOMETRIC_REPRESENTATION_CONTEXT(3) 
GLOBAL_UNCERTAINTY_ASSIGNED_CONTEXT((#747)) GLOBAL_UNIT_ASSIGNED_CONTEXT
((#744,#745,#746)) REPRESENTATION_CONTEXT('Context #1',
  '3D Context with UNIT and UNCERTAINTY') );
#744 = ( LENGTH_UNIT() NAMED_UNIT(*) SI_UNIT(.MILLI.,.METRE.) );
#745 = ( NAMED_UNIT(*) PLANE_ANGLE_UNIT() SI_UNIT($,.RADIAN.) );
#746 = ( NAMED_UNIT(*) SI_UNIT($,.STERADIAN.) SOLID_ANGLE_UNIT() );
#747 = UNCERTAINTY_MEASURE_WITH_UNIT(LENGTH_MEASURE(1.E-05),#744,
  'distance_accuracy_value','confusion accuracy');
#748 = PRODUCT_RELATED_PRODUCT_CATEGORY('part',$,(#7));
#749 = MECHANICAL_DESIGN_GEOMETRIC_PRESENTATION_REPRESENTATION('',(#750)
  ,#743);
#750 = STYLED_ITEM('color',(#751),#15);
#751 = PRESENTATION_STYLE_ASSIGNMENT((#752,#758));
#752 = SURFACE_STYLE_USAGE(.BOTH.,#753);
#753 = SURFACE_SIDE_STYLE('',(#754));
#754 = SURFACE_STYLE_FILL_AREA(#755);
#755 = FILL_AREA_STYLE('',(#756));
#756 = FILL_AREA_STYLE_COLOUR('',#757);
#757 = COLOUR_RGB('',0.447058818107,0.474509808674,0.501960817233);
#758 = CURVE_STYLE('',#759,POSITIVE_LENGTH_MEASURE(0.1),#760);
#759 = DRAUGHTING_PRE_DEFINED_CURVE_FONT('continuous');
#760 = COLOUR_RGB('',0.678431390124,0.709803936702,0.741176476869);
ENDSEC;
END-ISO-10303-21;
